<mxfile host="app.diagrams.net" modified="2023-06-16T10:55:20.078Z" agent="Mozilla/5.0 (X11; Linux x86_64) AppleWebKit/537.36 (KHTML, like Gecko) Chrome/112.0.0.0 Safari/537.36" etag="m7LxaG6sG1ebpd06XjT9" version="21.4.0" type="github">
  <diagram name="Page-1" id="OL0PFyinvGwntiPUbFxy">
    <mxGraphModel dx="1367" dy="806" grid="1" gridSize="10" guides="1" tooltips="1" connect="1" arrows="1" fold="1" page="1" pageScale="1" pageWidth="827" pageHeight="1169" math="0" shadow="0">
      <root>
        <mxCell id="0" />
        <mxCell id="1" parent="0" />
        <mxCell id="EPdE8MKQNPzUCB_GYhq_-1" style="edgeStyle=orthogonalEdgeStyle;rounded=0;orthogonalLoop=1;jettySize=auto;html=1;entryX=0.5;entryY=0;entryDx=0;entryDy=0;fontSize=17;fontColor=#EA6B66;startArrow=none;startFill=0;endArrow=none;endFill=0;exitX=0.25;exitY=1;exitDx=0;exitDy=0;" edge="1" parent="1" source="EPdE8MKQNPzUCB_GYhq_-3" target="EPdE8MKQNPzUCB_GYhq_-16">
          <mxGeometry relative="1" as="geometry" />
        </mxCell>
        <mxCell id="EPdE8MKQNPzUCB_GYhq_-2" value="&amp;lt; est liée à" style="edgeLabel;html=1;align=center;verticalAlign=middle;resizable=0;points=[];" vertex="1" connectable="0" parent="EPdE8MKQNPzUCB_GYhq_-1">
          <mxGeometry x="-0.2745" y="1" relative="1" as="geometry">
            <mxPoint x="-27" y="-3" as="offset" />
          </mxGeometry>
        </mxCell>
        <mxCell id="EPdE8MKQNPzUCB_GYhq_-3" value="Exposition" style="swimlane;fontStyle=1;align=center;verticalAlign=top;childLayout=stackLayout;horizontal=1;startSize=26;horizontalStack=0;resizeParent=1;resizeParentMax=0;resizeLast=0;collapsible=1;marginBottom=0;fillColor=#647687;strokeColor=#314354;fontColor=#ffffff;" vertex="1" parent="1">
          <mxGeometry x="650" y="430" width="100" height="114" as="geometry">
            <mxRectangle x="600" y="310" width="90" height="26" as="alternateBounds" />
          </mxGeometry>
        </mxCell>
        <mxCell id="EPdE8MKQNPzUCB_GYhq_-4" value="+ niveau: real&#xa;+ durée: real&#xa;+ lieu: nom, coord.&#xa;+ fréquence: real&#xa;+ date: date" style="text;align=left;verticalAlign=top;spacingLeft=4;spacingRight=4;overflow=hidden;rotatable=0;points=[[0,0.5],[1,0.5]];portConstraint=eastwest;" vertex="1" parent="EPdE8MKQNPzUCB_GYhq_-3">
          <mxGeometry y="26" width="100" height="80" as="geometry" />
        </mxCell>
        <mxCell id="EPdE8MKQNPzUCB_GYhq_-5" value="" style="line;strokeWidth=1;fillColor=none;align=left;verticalAlign=middle;spacingTop=-1;spacingLeft=3;spacingRight=3;rotatable=0;labelPosition=right;points=[];portConstraint=eastwest;" vertex="1" parent="EPdE8MKQNPzUCB_GYhq_-3">
          <mxGeometry y="106" width="100" height="8" as="geometry" />
        </mxCell>
        <mxCell id="EPdE8MKQNPzUCB_GYhq_-6" style="edgeStyle=orthogonalEdgeStyle;rounded=0;orthogonalLoop=1;jettySize=auto;html=1;exitX=0.5;exitY=0;exitDx=0;exitDy=0;endArrow=none;endFill=0;entryX=1;entryY=0.5;entryDx=0;entryDy=0;" edge="1" parent="1" source="EPdE8MKQNPzUCB_GYhq_-8" target="EPdE8MKQNPzUCB_GYhq_-4">
          <mxGeometry relative="1" as="geometry">
            <mxPoint x="845" y="698" as="targetPoint" />
          </mxGeometry>
        </mxCell>
        <mxCell id="EPdE8MKQNPzUCB_GYhq_-7" value="&amp;lt; Contribue" style="edgeLabel;html=1;align=center;verticalAlign=middle;resizable=0;points=[];" vertex="1" connectable="0" parent="EPdE8MKQNPzUCB_GYhq_-6">
          <mxGeometry x="-0.9664" y="1" relative="1" as="geometry">
            <mxPoint x="-125" y="-51" as="offset" />
          </mxGeometry>
        </mxCell>
        <mxCell id="EPdE8MKQNPzUCB_GYhq_-8" value="Présence/Activités humaines" style="swimlane;fontStyle=1;align=center;verticalAlign=top;childLayout=stackLayout;horizontal=1;startSize=26;horizontalStack=0;resizeParent=1;resizeParentMax=0;resizeLast=0;collapsible=1;marginBottom=0;fillColor=#ffe6cc;strokeColor=#d79b00;" vertex="1" parent="1">
          <mxGeometry x="930" y="551" width="193" height="34" as="geometry">
            <mxRectangle x="320" y="370" width="90" height="26" as="alternateBounds" />
          </mxGeometry>
        </mxCell>
        <mxCell id="EPdE8MKQNPzUCB_GYhq_-9" value="" style="line;strokeWidth=1;fillColor=none;align=left;verticalAlign=middle;spacingTop=-1;spacingLeft=3;spacingRight=3;rotatable=0;labelPosition=right;points=[];portConstraint=eastwest;" vertex="1" parent="EPdE8MKQNPzUCB_GYhq_-8">
          <mxGeometry y="26" width="193" height="8" as="geometry" />
        </mxCell>
        <mxCell id="EPdE8MKQNPzUCB_GYhq_-11" style="edgeStyle=orthogonalEdgeStyle;rounded=0;orthogonalLoop=1;jettySize=auto;html=1;entryX=0.75;entryY=1;entryDx=0;entryDy=0;endArrow=none;endFill=0;exitX=0.5;exitY=0;exitDx=0;exitDy=0;" edge="1" parent="1" source="EPdE8MKQNPzUCB_GYhq_-13" target="EPdE8MKQNPzUCB_GYhq_-3">
          <mxGeometry relative="1" as="geometry">
            <mxPoint x="934.9999999999991" y="698" as="targetPoint" />
          </mxGeometry>
        </mxCell>
        <mxCell id="EPdE8MKQNPzUCB_GYhq_-12" value="est liée à &amp;gt;" style="edgeLabel;html=1;align=center;verticalAlign=middle;resizable=0;points=[];" vertex="1" connectable="0" parent="EPdE8MKQNPzUCB_GYhq_-11">
          <mxGeometry x="0.1381" y="2" relative="1" as="geometry">
            <mxPoint x="18" y="-4" as="offset" />
          </mxGeometry>
        </mxCell>
        <mxCell id="EPdE8MKQNPzUCB_GYhq_-13" value="Lieu/espace géographique" style="swimlane;fontStyle=1;align=center;verticalAlign=top;childLayout=stackLayout;horizontal=1;startSize=26;horizontalStack=0;resizeParent=1;resizeParentMax=0;resizeLast=0;collapsible=1;marginBottom=0;fillColor=#eeeeee;strokeColor=#36393d;" vertex="1" parent="1">
          <mxGeometry x="741" y="660" width="170" height="104" as="geometry">
            <mxRectangle x="600" y="310" width="90" height="26" as="alternateBounds" />
          </mxGeometry>
        </mxCell>
        <mxCell id="EPdE8MKQNPzUCB_GYhq_-14" value="+ nom: char&#xa;+ lat: real&#xa;+ long: real&#xa;+ limites: polygone" style="text;strokeColor=none;fillColor=none;align=left;verticalAlign=top;spacingLeft=4;spacingRight=4;overflow=hidden;rotatable=0;points=[[0,0.5],[1,0.5]];portConstraint=eastwest;" vertex="1" parent="EPdE8MKQNPzUCB_GYhq_-13">
          <mxGeometry y="26" width="170" height="70" as="geometry" />
        </mxCell>
        <mxCell id="EPdE8MKQNPzUCB_GYhq_-15" value="" style="line;strokeWidth=1;fillColor=none;align=left;verticalAlign=middle;spacingTop=-1;spacingLeft=3;spacingRight=3;rotatable=0;labelPosition=right;points=[];portConstraint=eastwest;" vertex="1" parent="EPdE8MKQNPzUCB_GYhq_-13">
          <mxGeometry y="96" width="170" height="8" as="geometry" />
        </mxCell>
        <mxCell id="EPdE8MKQNPzUCB_GYhq_-16" value="Moment/période" style="swimlane;fontStyle=1;align=center;verticalAlign=top;childLayout=stackLayout;horizontal=1;startSize=26;horizontalStack=0;resizeParent=1;resizeParentMax=0;resizeLast=0;collapsible=1;marginBottom=0;fillColor=#eeeeee;strokeColor=#36393d;" vertex="1" parent="1">
          <mxGeometry x="520" y="660" width="121" height="112" as="geometry">
            <mxRectangle x="600" y="310" width="90" height="26" as="alternateBounds" />
          </mxGeometry>
        </mxCell>
        <mxCell id="EPdE8MKQNPzUCB_GYhq_-17" value="+ nom: char&#xa;+ date: date&#xa;+ heure: heure&#xa;+ saison: char&#xa;+ ..." style="text;strokeColor=none;fillColor=none;align=left;verticalAlign=top;spacingLeft=4;spacingRight=4;overflow=hidden;rotatable=0;points=[[0,0.5],[1,0.5]];portConstraint=eastwest;" vertex="1" parent="EPdE8MKQNPzUCB_GYhq_-16">
          <mxGeometry y="26" width="121" height="78" as="geometry" />
        </mxCell>
        <mxCell id="EPdE8MKQNPzUCB_GYhq_-18" value="" style="line;strokeWidth=1;fillColor=none;align=left;verticalAlign=middle;spacingTop=-1;spacingLeft=3;spacingRight=3;rotatable=0;labelPosition=right;points=[];portConstraint=eastwest;" vertex="1" parent="EPdE8MKQNPzUCB_GYhq_-16">
          <mxGeometry y="104" width="121" height="8" as="geometry" />
        </mxCell>
      </root>
    </mxGraphModel>
  </diagram>
</mxfile>
